<svg width="219" height="48" viewBox="0 0 219 48" fill="none" xmlns="http://www.w3.org/2000/svg">
<g id="sendgrid-logo">
<g id="SG_Twilio_Lockup_RGB">
<path id="Shape" fill-rule="evenodd" clip-rule="evenodd" d="M50.6623 37.8037L45.1426 42.1267C48.0069 45.3764 51.826 47.8211 57.5844 47.7913C64.5661 47.7913 68.5642 42.9615 68.5642 37.923C68.5642 31.841 63.7009 29.9627 59.4044 28.5615C59.1751 28.4844 58.9473 28.4088 58.7219 28.3339C55.633 27.3077 52.9896 26.4295 52.9896 24.1789C52.9896 22.1814 54.5112 20.6609 57.3159 20.6609C59.7923 20.6609 61.6422 21.7043 62.955 23.6422L67.9377 19.8857C65.3717 17.2323 62.4179 15.2944 57.2562 15.2944C51.1397 15.2944 46.7239 19.3193 46.7239 24.3876C46.7239 30.4398 51.4679 32.0795 55.7047 33.3913C55.8738 33.4436 56.0424 33.4955 56.2101 33.547L56.211 33.5473C59.3861 34.5231 62.2389 35.3999 62.2389 37.8634C62.2389 40.0398 60.5979 42.0373 57.5247 42.0373C54.6903 42.0373 52.2138 40.487 50.6623 37.8037ZM99.5644 25.6994H93.6567V47.3441H99.5942V35.5081C99.5942 31.8708 101.444 30.3205 103.712 30.3205C106.367 30.3205 107.71 32.0199 107.71 34.9118V47.3441H113.767V34.1366C113.767 28.5317 110.664 25.2522 105.562 25.2522C103.085 25.2522 100.967 26.3255 99.5644 28.1143V25.6994ZM115.139 36.5516C115.139 28.8894 120.778 25.282 125.671 25.282C128.476 25.282 130.714 26.3255 132.146 27.846V15.7416H138.083V47.3739H132.146V44.959C130.714 46.6584 128.416 47.8211 125.612 47.8211C120.987 47.8211 115.139 44.154 115.139 36.5516ZM126.745 30.6783C129.968 30.6783 132.295 33.2721 132.295 36.4919C132.295 39.7118 129.968 42.3354 126.745 42.3354C123.434 42.3354 120.927 39.8311 120.927 36.4919C120.927 33.1528 123.463 30.6783 126.745 30.6783ZM139.456 31.5727C139.456 22.5689 146.259 15.3242 155.627 15.3242C160.312 15.3242 164.25 17.0236 167.114 19.7068C168.278 20.8099 169.262 22.0621 170.038 23.4335L164.757 26.6534C162.818 23.046 159.804 21.1975 155.687 21.1975C149.928 21.1975 145.453 25.9081 145.453 31.6025C145.453 37.4161 149.839 42.0075 155.896 42.0075C160.491 42.0075 163.743 39.4137 164.877 35.3888H154.941V29.6348H171.381V32.0497C171.381 40.5466 165.324 47.8509 155.896 47.8509C145.99 47.8211 139.456 40.3081 139.456 31.5727ZM178.78 25.6994H172.903V47.3441H178.84V37.118C178.84 33.0932 180.242 31.4534 183.405 31.4534H185.016L187.164 25.6994H184.777C181.824 25.6994 179.854 26.9814 178.78 29.2472V25.6994ZM188.686 25.6994H194.624V47.3739H188.686V31.4832H186.538L188.686 25.6994ZM195.22 18.8721C195.22 20.8398 193.639 22.4199 191.67 22.4199C189.7 22.4199 188.119 20.8099 188.119 18.8721C188.119 16.9043 189.7 15.3242 191.67 15.3242C193.639 15.3242 195.22 16.9043 195.22 18.8721ZM196.026 36.5516C196.026 28.8894 201.665 25.282 206.558 25.282C209.363 25.282 211.6 26.3255 213.033 27.846V15.7416H218.97V47.3739H213.033V44.959C211.6 46.6584 209.303 47.8211 206.498 47.8211C201.874 47.8211 196.026 44.154 196.026 36.5516ZM207.662 30.6783C210.884 30.6783 213.212 33.2721 213.212 36.4919C213.212 39.7118 210.855 42.3354 207.662 42.3354C204.35 42.3354 201.844 39.8311 201.844 36.4919C201.844 33.1528 204.38 30.6783 207.662 30.6783ZM92.2544 36.4919C92.2544 30.2609 87.6894 25.282 81.0657 25.282C74.8299 25.282 69.7875 30.3205 69.7875 36.5516C69.7875 42.7826 74.4719 47.8211 81.2448 47.8211C85.9291 47.8211 89.3006 45.5553 91.1803 42.3354L86.4661 39.5329C85.4815 41.441 83.5422 42.6335 81.2746 42.6335C78.1418 42.6335 76.2024 41.0832 75.5161 38.6981H92.2544V36.4919ZM81.1254 30.4696C78.5893 30.4696 76.7096 31.8708 75.7847 33.8981H86.2871C85.5114 31.6323 83.6317 30.4696 81.1254 30.4696Z" fill="#243746"/>
<g id="Group">
<rect id="Rectangle" x="12.7104" y="34.7329" width="12.6507" height="12.641" fill="#99E1F4"/>
<path id="Path" d="M12.7103 22.0621H0.0595703V34.7329H12.7103V22.0621Z" fill="#99E1F4"/>
<rect id="Rectangle_2" x="0.0595703" y="34.7329" width="12.6507" height="12.641" fill="#1A82E2"/>
<path id="Path_2" d="M38.0418 22.0621H25.3911V34.7329H38.0418V22.0621Z" fill="#00B2E3"/>
<rect id="Rectangle_3" x="12.7104" y="9.42111" width="12.6507" height="12.641" fill="#00B2E3"/>
<path id="Path_3" d="M12.7104 22.0621V34.7329H25.391V22.0621H12.7104Z" fill="#009DD9"/>
<rect id="Rectangle_4" x="25.3911" y="9.42111" width="12.6507" height="12.641" fill="#1A82E2"/>
</g>
<g id="Group_2">
<path id="Path_4" d="M51.1398 1.78882V9.15279H49.4391V1.78882H46.8135V0.298134H53.7952V1.759H51.1398V1.78882Z" fill="#243746"/>
<path id="Path_5" d="M66.207 9.1528H64.5958L62.6266 2.71305L60.6574 9.1528H59.0463L56.5698 0.268326L58.36 0.298139L60.001 6.55901L61.8509 0.298139H63.5516L65.4014 6.55901L67.0126 0.298139H68.7133L66.207 9.1528Z" fill="#243746"/>
<path id="Path_6" d="M72.1147 9.15279V0.298134H73.8154V9.15279H72.1147Z" fill="#243746"/>
<path id="Path_7" d="M77.7837 9.15279V0.298134H79.4844V7.66211H82.4382L82.468 9.15279H77.7837Z" fill="#243746"/>
<path id="Path_8" d="M85.9888 9.15279V0.298134H87.6895V9.15279H85.9888Z" fill="#243746"/>
<path id="Shape_2" fill-rule="evenodd" clip-rule="evenodd" d="M91.3296 4.74038C91.3296 7.48323 92.9706 9.33168 95.4769 9.33168C98.013 9.33168 99.6241 7.45342 99.654 4.74038C99.654 1.99752 98.0428 0.149071 95.5067 0.149071C92.9706 0.149071 91.3296 1.99752 91.3296 4.74038ZM93.0601 4.74038C93.0601 2.80249 93.9552 1.55031 95.4769 1.55031C96.9985 1.55031 97.9235 2.80249 97.9235 4.74038C97.9235 6.67826 96.9985 7.93044 95.4769 7.93044C93.985 7.93044 93.0601 6.67826 93.0601 4.74038Z" fill="#243746"/>
</g>
</g>
</g>
</svg>
