<svg width="122" height="48" viewBox="0 0 122 48" fill="none" xmlns="http://www.w3.org/2000/svg">
<g clip-path="url(#clip0)">
<rect width="122" height="48" fill="white"/>
<path d="M66.135 27.024C66.135 27.784 66.401 28.3794 66.933 28.81C67.4777 29.2407 68.225 29.456 69.175 29.456C70.1757 29.456 70.942 29.266 71.474 28.886C72.0187 28.4934 72.291 27.9487 72.291 27.252C72.291 26.9354 72.215 26.6694 72.063 26.454C71.9237 26.2387 71.7273 26.055 71.474 25.903C71.2207 25.751 70.923 25.6307 70.581 25.542C70.2517 25.4534 69.8907 25.371 69.498 25.295L68.643 25.143C68.111 25.0544 67.579 24.9404 67.047 24.801C66.5277 24.6617 66.059 24.459 65.641 24.193C65.223 23.927 64.881 23.5787 64.615 23.148C64.3617 22.7174 64.235 22.16 64.235 21.476C64.235 20.9187 64.349 20.4057 64.577 19.937C64.8177 19.4557 65.1533 19.044 65.584 18.702C66.002 18.36 66.515 18.094 67.123 17.904C67.7437 17.7014 68.434 17.6 69.194 17.6C69.9287 17.6 70.5937 17.6887 71.189 17.866C71.797 18.0434 72.3163 18.2967 72.747 18.626C73.1777 18.9554 73.507 19.3607 73.735 19.842C73.9757 20.3234 74.096 20.8744 74.096 21.495H71.987C71.987 20.7477 71.721 20.1904 71.189 19.823C70.657 19.4557 69.992 19.272 69.194 19.272C68.7887 19.272 68.415 19.3164 68.073 19.405C67.731 19.481 67.4333 19.6014 67.18 19.766C66.9267 19.9434 66.724 20.1587 66.572 20.412C66.4327 20.6527 66.363 20.9377 66.363 21.267C66.363 21.5964 66.439 21.875 66.591 22.103C66.7557 22.3184 66.9773 22.4957 67.256 22.635C67.522 22.787 67.8387 22.9074 68.206 22.996C68.586 23.0847 68.985 23.167 69.403 23.243L70.258 23.395C70.7773 23.4837 71.2903 23.604 71.797 23.756C72.3037 23.8954 72.7597 24.098 73.165 24.364C73.5577 24.6427 73.8743 24.9974 74.115 25.428C74.3683 25.8587 74.495 26.4097 74.495 27.081C74.495 27.689 74.3747 28.24 74.134 28.734C73.906 29.228 73.564 29.6524 73.108 30.007C72.652 30.3617 72.0947 30.6404 71.436 30.843C70.7773 31.033 70.0237 31.128 69.175 31.128C67.503 31.128 66.2237 30.767 65.337 30.045C64.4503 29.3104 64.007 28.3034 64.007 27.024H66.135ZM78.1019 17.828H80.8759L85.2649 27.993H85.3219L89.6539 17.828H92.3899V30.9H90.2429L90.4139 20.944H90.3379L86.0819 30.9H84.4289L80.1729 21.115H80.0969L80.2489 30.9H78.1019V17.828ZM95.1549 17.828H106.289V19.633H101.786V30.9H99.6389V19.633H95.1549V17.828ZM109.029 17.828H114.33C115.09 17.828 115.761 17.9357 116.344 18.151C116.939 18.3537 117.439 18.6387 117.845 19.006C118.237 19.386 118.535 19.842 118.738 20.374C118.953 20.8934 119.061 21.4634 119.061 22.084C119.061 22.7174 118.953 23.3 118.738 23.832C118.535 24.364 118.237 24.8264 117.845 25.219C117.439 25.6117 116.939 25.922 116.344 26.15C115.761 26.3654 115.09 26.473 114.33 26.473H111.176V30.9H109.029V17.828ZM111.176 19.614V24.706H114.235C114.678 24.706 115.064 24.6427 115.394 24.516C115.736 24.3767 116.021 24.1867 116.249 23.946C116.464 23.7054 116.622 23.433 116.724 23.129C116.838 22.8124 116.895 22.4704 116.895 22.103C116.895 21.3684 116.673 20.773 116.23 20.317C115.799 19.8484 115.134 19.614 114.235 19.614H111.176Z" fill="#6E6E6E"/>
<path fill-rule="evenodd" clip-rule="evenodd" d="M23.7994 48C10.6554 48 0 37.256 0 23.9984C0 10.7448 10.6554 0 23.7994 0C36.9426 0 47.5972 10.7448 47.5972 23.9984C47.5972 37.256 36.9426 48 23.7994 48ZM14.4902 17.9591L23.614 24.3458L32.7379 17.9591C32.5685 17.6078 32.2078 17.3625 31.7953 17.3625H15.4328C15.0203 17.3625 14.6596 17.6078 14.4902 17.9591ZM34.8406 18.3915C34.8317 16.7217 33.4671 15.3625 31.7953 15.3625H15.4328C13.7618 15.3625 12.3975 16.7206 12.3876 18.3894C12.3874 18.3999 12.3874 18.4105 12.3875 18.421V30.6797C12.3875 32.3569 13.7556 33.725 15.4328 33.725H31.7953C33.4725 33.725 34.8406 32.3569 34.8406 30.6797V18.4193M32.8406 20.3285V30.6797C32.8406 31.2523 32.368 31.725 31.7953 31.725H15.4328C14.8602 31.725 14.3875 31.2523 14.3875 30.6797V20.3285L23.0406 26.3856C23.3849 26.6267 23.8432 26.6267 24.1875 26.3856L32.8406 20.3285Z" fill="#02B48E"/>
</g>
<defs>
<clipPath id="clip0">
<rect width="122" height="48" fill="white"/>
</clipPath>
</defs>
</svg>
