<svg width="35" height="35" viewBox="0 0 35 35" fill="none" xmlns="http://www.w3.org/2000/svg">
<rect width="35" height="35" fill="white"/>
<path fill-rule="evenodd" clip-rule="evenodd" d="M21.3818 26.7642H14.7205C13.4942 26.7642 12.5 25.7699 12.5 24.5433V21.213V20.1027V13.4412V12.3303V11.2206C12.5 9.99399 13.4942 9 14.7205 9H21.3818C22.6081 9 23.6023 9.99399 23.6023 11.2206V12.3303V13.4412V20.1027V21.213V24.5433C23.6023 25.7699 22.6078 26.7642 21.3818 26.7642V26.7642ZM22.4918 11.2206C22.4918 10.6066 21.9947 10.1097 21.3816 10.1097H14.7202C14.1071 10.1097 13.61 10.6066 13.61 11.2206V12.3303H22.4918V11.2206V11.2206ZM22.4918 13.4412H13.61V20.1027H22.4918V13.4412V13.4412ZM13.6102 21.213V24.5433C13.6102 25.1565 14.1073 25.6542 14.7205 25.6542H21.3818C21.995 25.6542 22.4921 25.1565 22.4921 24.5433V21.213H13.6102V21.213ZM18.0511 24.543C17.438 24.543 16.9409 24.0464 16.9409 23.4338C16.9409 22.8204 17.438 22.323 18.0511 22.323C18.6643 22.323 19.1614 22.8204 19.1614 23.4338C19.1614 24.0467 18.664 24.543 18.0511 24.543V24.543Z" fill="#333333"/>
</svg>
