<?xml version="1.0" encoding="UTF-8"?>
<svg width="40px" height="40px" viewBox="0 0 40 40" version="1.1" xmlns="http://www.w3.org/2000/svg" xmlns:xlink="http://www.w3.org/1999/xlink">
    <!-- Generator: Sketch 52 (66869) - http://www.bohemiancoding.com/sketch -->
    <title>Group 7</title>
    <desc>Created with Sketch.</desc>
    <g id="Old" stroke="none" stroke-width="1" fill="none" fill-rule="evenodd">
        <g id="MFA-Copy-15" transform="translate(-432.000000, -506.000000)">
            <g id="Rectangle-4-+-Group-2-Copy-Mask-Copy" transform="translate(400.000000, 251.000000)">
                <g id="Group-Copy" transform="translate(0.000000, 220.000000)">
                    <g id="Group-7" transform="translate(32.000000, 35.000000)">
                        <rect id="Rectangle-2" fill="#FFFFFF" x="0" y="0" width="40" height="40"></rect>
                        <path d="M10,29.0011825 L10,15.250057 L20.0003125,9 L30,15.250057 L30,29.0011825 L10,29.0011825 L10,29.0011825 Z M28.0915625,27.7514211 L23.1253125,21.364481 L19.9415625,23.7789987 L19.7228125,23.9983867 L19.6890625,23.9705726 L19.653125,23.9983867 L19.36125,23.7061819 L16.715,21.5704307 L11.9090625,27.7517336 L28.0915625,27.7517336 L28.0915625,27.7514211 Z M11.25,26.4588447 L15.6928125,20.7450694 L11.25,17.1592324 L11.25,26.4588447 L11.25,26.4588447 Z M20.0003125,10.2500739 L11.485625,15.7241475 L16.469375,19.7462603 L16.559375,19.6306285 L17.4953125,20.5666213 L17.4909375,20.5713091 L19.71625,22.3676653 L28.494375,15.7113343 L20.0003125,10.2500739 L20.0003125,10.2500739 Z M24.1721875,20.5709966 L28.7503125,26.4591572 L28.7503125,17.0989163 L24.1721875,20.5709966 L24.1721875,20.5709966 Z" id="Shape" fill-opacity="0.89" fill="#000000"></path>
                    </g>
                </g>
            </g>
        </g>
    </g>
</svg>